<svg xmlns="http://www.w3.org/2000/svg" viewBox="0 0 32 32">
  <!-- Background -->
  <rect width="32" height="32" rx="6" fill="#0a0e14"/>

  <!-- Left track -->
  <rect x="3" y="8" width="5" height="16" rx="2.5" fill="#374151"/>
  <rect x="3.5" y="10" width="4" height="2" rx="1" fill="#4b5563"/>
  <rect x="3.5" y="13" width="4" height="2" rx="1" fill="#4b5563"/>
  <rect x="3.5" y="16" width="4" height="2" rx="1" fill="#4b5563"/>
  <rect x="3.5" y="19" width="4" height="2" rx="1" fill="#4b5563"/>

  <!-- Right track -->
  <rect x="24" y="8" width="5" height="16" rx="2.5" fill="#374151"/>
  <rect x="24.5" y="10" width="4" height="2" rx="1" fill="#4b5563"/>
  <rect x="24.5" y="13" width="4" height="2" rx="1" fill="#4b5563"/>
  <rect x="24.5" y="16" width="4" height="2" rx="1" fill="#4b5563"/>
  <rect x="24.5" y="19" width="4" height="2" rx="1" fill="#4b5563"/>

  <!-- Tank body -->
  <rect x="8" y="9" width="16" height="14" rx="3" fill="#ef4444"/>
  <rect x="9" y="10" width="14" height="12" rx="2" fill="#f87171"/>

  <!-- Turret -->
  <circle cx="16" cy="16" r="5" fill="#dc2626"/>
  <circle cx="16" cy="16" r="4" fill="#ef4444"/>

  <!-- Barrel -->
  <rect x="16" y="4" width="3" height="9" rx="1.5" fill="#dc2626"/>
  <rect x="16.5" y="4" width="2" height="8" rx="1" fill="#ef4444"/>
</svg>
